<?xml version="1.0" encoding="UTF-8"?>
<!DOCTYPE svg PUBLIC "-//W3C//DTD SVG 1.1//EN" "http://www.w3.org/Graphics/SVG/1.1/DTD/svg11.dtd">
<!-- Creator: CorelDRAW X8 -->
<svg xmlns="http://www.w3.org/2000/svg" xml:space="preserve" width="210mm" height="210mm" version="1.1" style="shape-rendering:geometricPrecision; text-rendering:geometricPrecision; image-rendering:optimizeQuality; fill-rule:evenodd; clip-rule:evenodd"
viewBox="0 0 21000 21000"
 xmlns:xlink="http://www.w3.org/1999/xlink">
 <defs>
  <style type="text/css">
   <![CDATA[
    .str0 {stroke:#FFFFFF;stroke-width:100}
    .str1 {stroke:#FFFFFF;stroke-width:20}
    .fil6 {fill:none}
    .fil5 {fill:#FFFFFF}
    .fil0 {fill:white}
    .fil3 {fill:#FFFFFF;fill-rule:nonzero}
    .fil2 {fill:url(#id0)}
    .fil1 {fill:url(#id1)}
    .fil4 {fill:url(#id2)}

    #layout_x0020_1 {
        animation: rotate 2.5s cubic-bezier(0.65, 0.05, 0.36, 1) infinite;
        /*position: relative;*/
        perspective: 600px; /* стандартное указание свойства */
    }

    #layout_x0020_1 {
        /*animation-play-state: running;*/
     transform-origin: 74.77% 49.45%;
    }


    @keyframes rotate {
        from {
            transform: rotate(0deg);
        }
        to {
            transform: rotate(360deg);
        }
    }

   ]]>
  </style>
  <linearGradient id="id0" gradientUnits="userSpaceOnUse" x1="9989.8" y1="4411.72" x2="9010.2" y2="5588.27">
   <stop offset="0" style="stop-opacity:1; stop-color:#00ED10"/>
   <stop offset="0.388235" style="stop-opacity:1; stop-color:#00C81C"/>
   <stop offset="1" style="stop-opacity:1; stop-color:#00A329"/>
  </linearGradient>
  <linearGradient id="id1" gradientUnits="userSpaceOnUse" xlink:href="#id0" x1="7486.4" y1="13506.4" x2="6506.8" y2="14683">
  </linearGradient>
  <linearGradient id="id2" gradientUnits="userSpaceOnUse" x1="16480.2" y1="10094.2" x2="14915.6" y2="10661.9">
   <stop offset="0" style="stop-opacity:1; stop-color:#00EB1F"/>
   <stop offset="1" style="stop-opacity:1; stop-color:#0B8700"/>
  </linearGradient>
 </defs>
 <g id="layout_x0020_0">
  <metadata id="CorelCorpID_0Corel-Layer"/>
  <path class="fil0" d="M6828 12368l339 -302c89,72 180,144 272,214 2070,1494 4030,2745 6318,3881 1397,660 2958,1339 4513,1482 244,14 455,12 696,-30 182,-36 324,-81 479,-184 129,-93 202,-181 265,-327 67,-175 75,-324 61,-509 -67,-594 -341,-1125 -637,-1637 -339,-564 -1681,-2269 -1778,-2474 381,243 1657,1973 1926,2385 327,538 616,1074 706,1705 22,224 14,400 -63,614 -78,194 -173,315 -340,440 -184,129 -351,188 -570,235 -263,52 -491,60 -759,49 -1609,-104 -3200,-772 -4649,-1436 -2332,-1108 -4320,-2346 -6428,-3834 -119,-89 -236,-180 -351,-272z"/>
  <path class="fil0" d="M3660 8424l-244 80c-761,-1145 -1430,-2357 -1769,-3699 -68,-312 -107,-580 -105,-900 9,-290 46,-514 163,-781 127,-260 267,-422 508,-582 274,-165 512,-226 828,-260 755,-44 1394,104 2106,332 151,49 299,100 448,155 1435,541 2719,1223 4048,1983 -95,165 -191,331 -286,496 -1298,-741 -2559,-1411 -3960,-1938 -142,-52 -284,-101 -428,-148 -624,-201 -1214,-351 -1878,-319 -217,21 -392,58 -581,171 -146,94 -227,188 -305,344 -85,188 -109,354 -117,559 -4,273 29,505 85,771 314,1301 969,2487 1701,3601l-214 135z"/>
  <path class="fil0" d="M3660 8424l-244 80c11,17 23,34 34,51l210 -131z"/>
  <path class="fil0" d="M3108 12239l332 227c-828,1138 -1536,2355 -1893,3733 -64,292 -101,545 -100,844 6,235 32,424 119,643 82,183 169,303 328,426 184,130 349,182 570,218 706,83 1383,-128 2037,-371 1188,-469 2204,-1068 3272,-1759 1372,-897 4149,-3100 5228,-3699 -683,801 -4142,3231 -5101,3890 -1075,718 -2096,1339 -3293,1837 -714,276 -1413,496 -2187,419 -279,-42 -485,-108 -720,-269 -213,-160 -333,-317 -443,-559 -110,-263 -145,-485 -156,-769 -6,-329 31,-606 98,-928 329,-1360 1124,-2755 1909,-3883z"/>
  <path class="fil0" d="M6171 8808l327 313c897,-791 1859,-1502 2978,-2213 1842,-1130 3665,-2182 5635,-3080 829,-365 1671,-707 2565,-872 289,-47 562,-76 851,-23 96,20 173,43 257,93 68,42 110,81 155,146 53,83 79,155 100,251 26,136 27,252 17,390 -42,407 -152,750 -300,1127 -19,49 -39,98 -59,146 -730,1680 -910,1942 -1984,3417 154,113 308,226 462,340 1111,-1525 1297,-1798 2054,-3535 22,-52 43,-104 63,-156 171,-438 287,-823 333,-1296 13,-197 8,-357 -31,-551 -39,-172 -88,-298 -185,-447 -97,-140 -191,-227 -337,-316 -147,-84 -272,-126 -437,-160 -370,-64 -686,-34 -1054,28 -947,183 -1813,538 -2690,930 -1984,922 -3819,1997 -5671,3157 -1148,744 -2133,1484 -3049,2311z"/>
  <path class="fil0" d="M13376 12344l394 -1c-70,1425 -182,2415 -526,3821 -345,1310 -764,2675 -1590,3797 -168,212 -323,377 -544,542 -210,148 -388,235 -647,282 -268,37 -467,8 -715,-93 -275,-125 -455,-273 -659,-484 -401,-446 -657,-890 -908,-1418 -108,-230 -206,-460 -301,-695 -506,-1302 -847,-2588 -1164,-3940 199,-40 398,-81 598,-121 310,1323 645,2585 1141,3859 90,225 184,444 287,664 222,468 448,878 799,1277 138,145 269,262 457,349 128,54 227,72 367,54 153,-26 263,-85 388,-171 174,-128 300,-264 434,-429 780,-1034 1200,-2379 1531,-3592 348,-1364 570,-2318 658,-3701z"/>
  <path class="fil0" d="M13376 8710l385 -6c-80,-1011 -178,-2223 -398,-3288 -314,-1396 -704,-2729 -1528,-3943 -287,-397 -565,-711 -1004,-964 -186,-99 -339,-156 -550,-190 -207,-26 -363,-16 -564,35 -213,62 -363,141 -541,265 -202,150 -346,297 -504,487 -410,524 -657,1044 -897,1650 -75,194 -142,387 -207,584 -187,591 -330,1161 -456,1765 -47,241 -355,1945 -306,2130 16,-28 419,-1932 459,-2099 145,-594 304,-1156 507,-1735 68,-192 140,-380 218,-569 242,-576 491,-1077 897,-1569 145,-168 277,-298 462,-429 147,-100 273,-164 448,-211 156,-37 276,-43 435,-20 168,30 290,79 437,161 385,232 632,528 881,883 767,1185 1127,2494 1414,3842 196,1040 345,2234 412,3221z"/>
  <path class="fil1" d="M6593 13444c360,-223 832,-112 1054,248 223,359 112,831 -247,1053 -360,223 -831,112 -1054,-247 -223,-359 -112,-831 247,-1054z"/>
  <path class="fil2" d="M9097 4349c359,-222 831,-112 1054,248 222,359 112,831 -248,1054 -359,222 -831,112 -1054,-248 -222,-359 -112,-831 248,-1054z"/>
  <path class="fil3" d="M1250 10290l1094 0c178,0 296,-29 358,-88 61,-58 91,-187 91,-387 0,-191 -33,-310 -98,-359 -65,-49 -231,-73 -499,-73l-947 0 1 907zm1 1291l1105 0c201,0 336,-28 406,-85 68,-57 103,-205 103,-443 0,-201 -39,-331 -116,-390 -78,-60 -279,-89 -603,-89l-896 0 1 1007zm-329 291l-2 -2784 1410 0c326,0 543,45 649,137 107,90 160,276 160,557 0,216 -26,366 -78,453 -52,87 -144,146 -276,179 161,37 272,103 335,199 64,95 95,256 95,481 1,307 -65,513 -197,619 -131,106 -395,159 -791,159l-1305 0zm4236 -2489l-967 0 0 1114 968 0c253,0 418,-28 496,-86 78,-57 117,-160 117,-308l0 -326c0,-150 -38,-254 -114,-310 -75,-56 -242,-84 -500,-84zm-1299 2489l-2 -2784 1369 0c340,0 575,47 703,139 129,93 193,258 193,496l1 421c0,273 -110,455 -392,499 144,32 246,88 304,171 59,82 88,212 88,389l1 669 -351 0 0 -574c0,-199 -34,-334 -103,-404 -69,-71 -203,-106 -403,-106l-1075 0 0 1084 -333 0zm3357 -988l1314 0 -607 -1500 -108 0 -599 1500zm-742 988l1119 -2784 552 0 1128 2784 -346 0 -289 -712 -1535 0 -282 712 -347 0zm3478 38l-1 -2784 337 0 2 2784 -338 0zm1448 0l-2 -2784 537 0 1484 2332c0,0 35,-830 -27,-2336 0,0 385,0 385,0 31,939 38,2172 4,2788l-379 -1 -1650 -2487 1 2488 -353 0zm7638 -2527l-968 0 1 1114 968 0c252,0 417,-28 495,-86 79,-57 118,-160 118,-308l-1 -326c0,-150 -37,-254 -113,-310 -75,-56 -243,-84 -500,-84zm-1300 2489l-2 -2784 1369 0c341,0 575,47 704,139 128,93 193,258 193,496l0 421c0,272 -110,455 -391,499 144,32 246,89 304,171 58,82 88,212 88,389l0 669 -350 0 -1 -574c0,-199 -34,-334 -103,-404 -69,-71 -203,-106 -402,-106l-1076 0 1 1084 -334 0z"/>
  <path class="fil4 str0" d="M16521 10258c67,455 -248,877 -703,944 -455,66 -877,-249 -944,-704 -66,-454 249,-877 704,-943 454,-67 877,248 943,703z"/>
  <g id="layout_x0020_1">
   <circle class="fil5 str1" transform="matrix(0.56433 2.7556 -2.7556 0.56433 16852.5 9572.81)" r="148"/>
   <circle class="fil6 str0" transform="matrix(0.23211 1.10236 -1.10236 0.23211 15698 10379.8)" r="1250"/>
   <circle class="fil5 str1" transform="matrix(0.56433 2.7556 -2.7556 0.56433 14631.1 11299.2)" r="148"/>
  </g>
 </g>
</svg>
